# xmcd
# Track frame offsets:
# 150
# 1462
# 15847
# 22170
# 35232
# 40402
# 53112
# 59020
# 71990
# 76522
# 87312
# 92605
# 106927
# 109105
# 122130
# 126590
# 137820
# 143902
# 155255
# 162827
# 176405
# 180107
# 191697
# 197352
# 209927
# 223010
# 226700
# 239317
# 243815
# 258540
# 271060
# 283102
# 295495
# 307940
# 320035
# 332477
#
# Disc length: 4587 seconds
# Revision: 0
# Processed by: cddbd v1.5.1PL0 Copyright (c) Steve Scherf et al.
# Submitted via: VisiTrax 2.9.10.228 - For more info visit www.synapsa.com
#
DISCID=0a11e924
DTITLE=Hank Williams Snr and Hank Williams Jnr - Country Drifters
DYEAR=1990
DGENRE=Country
TTITLE0=Hank Williams Jnr - Narration
TTITLE1=Hank Williams Jnr - When He Sang
TTITLE2=Hank Williams Jnr - Narration
TTITLE3=Hank Williams Snr - Hey, Good Lookin'
TTITLE4=Hank Williams Jnr - Narration
TTITLE5=Hank Williams Jnr - (I'm Praying For The Day) That Peace Will Come
TTITLE6=Hank Williams Jnr - Narration
TTITLE7=Hank Williams Snr - Jambalaya (On The Bayou)
TTITLE8=Hank Williams Jnr - Narration
TTITLE9=Hank Williams Snr - Why Don't You Love Me
TTITLE10=Hank Williams Jnr - Narration
TTITLE11=Hank Williams Snr - Men With Broken Hearts
TTITLE12=Hank Williams Jnr - Narration
TTITLE13=Hank Williams Snr - A Picture From Life's Other Side
TTITLE14=Hank Williams Jnr - Narration
TTITLE15=Hank Williams Snr - Nobody's Lonesome For Me
TTITLE16=Hank Williams Jnr - Narration
TTITLE17=Hank Williams Snr - My Bucket's Got A Hole In It
TTITLE18=Hank Williams Jnr - Narration
TTITLE19=Hank Williams Snr - I Dreamed About Mama Last Night
TTITLE20=Hank Williams Jnr - Narration
TTITLE21=Hank Williams Jnr - I Just Didn't Have The Heart To Say Goodbye
TTITLE22=Hank Williams Jnr - Naration
TTITLE23=Hank Williams Snr - Half As Much
TTITLE24=Hank Williams Snr - Wedding Bells
TTITLE25=Hank Williams Jnr - Narration
TTITLE26=Hank Williams Snr - There'll Be No Teardrops
TTITLE27=Hank Williams Jnr - Narration
TTITLE28=Hank Williams Jnr - Standing In The Shadows
TTITLE29=Hank Williams Snr - Lovesick Blues
TTITLE30=Hank Williams Snr - Long Gone Lonesome Blues
TTITLE31=Hank Williams Snr - Cold Cold Heart
TTITLE32=Hank Williams Snr - Your Cheatin' Heart
TTITLE33=Hank Williams Snr - Take These Chains From My Heart
TTITLE34=Hank Williams Snr - I Won't Be Home No More
TTITLE35=Hank Williams Snr - Wery Blues From Waitin'
EXTD=Polydor 847 388-2
EXTT0=
EXTT1=
EXTT2=
EXTT3=
EXTT4=
EXTT5=
EXTT6=
EXTT7=
EXTT8=
EXTT9=
EXTT10=
EXTT11=
EXTT12=
EXTT13=
EXTT14=
EXTT15=
EXTT16=
EXTT17=
EXTT18=
EXTT19=
EXTT20=
EXTT21=
EXTT22=
EXTT23=
EXTT24=
EXTT25=
EXTT26=
EXTT27=
EXTT28=
EXTT29=
EXTT30=
EXTT31=
EXTT32=
EXTT33=
EXTT34=
EXTT35=
PLAYORDER=
